<?xml version="1.0" encoding="UTF-8" standalone="no"?>
<svg
   xmlns:dc="http://purl.org/dc/elements/1.1/"
   xmlns:cc="http://creativecommons.org/ns#"
   xmlns:rdf="http://www.w3.org/1999/02/22-rdf-syntax-ns#"
   xmlns:svg="http://www.w3.org/2000/svg"
   xmlns="http://www.w3.org/2000/svg"
   xmlns:sodipodi="http://sodipodi.sourceforge.net/DTD/sodipodi-0.dtd"
   xmlns:inkscape="http://www.inkscape.org/namespaces/inkscape"
   inkscape:version="1.0 (4035a4fb49, 2020-05-01)"
   sodipodi:docname="Simon Sonundrum.svg"
   id="svg98"
   version="1.1"
   viewBox="0 0 348 348"
   fill="none">
  <metadata
     id="metadata102">
    <rdf:RDF>
      <cc:Work
         rdf:about="">
        <dc:format>image/svg+xml</dc:format>
        <dc:type
           rdf:resource="http://purl.org/dc/dcmitype/StillImage" />
        <dc:title></dc:title>
      </cc:Work>
    </rdf:RDF>
  </metadata>
  <sodipodi:namedview
     inkscape:current-layer="svg98"
     inkscape:window-maximized="1"
     inkscape:window-y="-9"
     inkscape:window-x="2391"
     inkscape:cy="166.86068"
     inkscape:cx="142.55298"
     inkscape:zoom="1.7230648"
     inkscape:snap-center="true"
     showgrid="false"
     id="namedview100"
     inkscape:window-height="1001"
     inkscape:window-width="1920"
     inkscape:pageshadow="2"
     inkscape:pageopacity="0"
     guidetolerance="10"
     gridtolerance="10"
     objecttolerance="10"
     borderopacity="1"
     bordercolor="#666666"
     pagecolor="#ffffff" />
  <defs
     id="defs6">
    <path
       d="M129 269h65v53h-65z"
       id="d" />
    <path
       d="M126 71h133v116H126z"
       id="a" />
    <path
       d="M126 71h133v116H126z"
       id="b" />
    <path
       d="M126 71h133v116H126z"
       id="c" />
  </defs>
  <path
     id="path8"
     style="color:#000;font-style:normal;font-variant:normal;font-weight:400;font-stretch:normal;font-size:medium;line-height:normal;font-family:sans-serif;font-variant-ligatures:normal;font-variant-position:normal;font-variant-caps:normal;font-variant-numeric:normal;font-variant-alternates:normal;font-variant-east-asian:normal;font-feature-settings:normal;font-variation-settings:normal;text-indent:0;text-align:start;text-decoration:none;text-decoration-line:none;text-decoration-style:solid;text-decoration-color:#000;letter-spacing:normal;word-spacing:normal;text-transform:none;writing-mode:lr-tb;direction:ltr;text-orientation:mixed;dominant-baseline:auto;baseline-shift:baseline;text-anchor:start;white-space:normal;shape-padding:0;shape-margin:0;inline-size:0;clip-rule:nonzero;display:inline;overflow:visible;visibility:visible;isolation:auto;mix-blend-mode:normal;color-interpolation:sRGB;color-interpolation-filters:linearRGB;solid-color:#000;solid-opacity:1;vector-effect:none;fill:#000;fill-opacity:1;fill-rule:nonzero;stroke:none;stroke-width:2;stroke-linecap:butt;stroke-linejoin:miter;stroke-miterlimit:4;stroke-dasharray:none;stroke-dashoffset:0;stroke-opacity:1;color-rendering:auto;image-rendering:auto;shape-rendering:auto;text-rendering:auto;enable-background:accumulate;stop-color:#000;stop-opacity:1;opacity:1"
     d="M4 5v339h339V5H4zm2 2h335v335H6V7z" />
  <g
     style="opacity:1"
     id="g1036">
    <path
       id="path1038"
       d="M 70.573158,123.03658 H 276.42684 V 225.96342 H 70.573158 Z"
       style="color:#000000;font-style:normal;font-variant:normal;font-weight:normal;font-stretch:normal;font-size:medium;line-height:normal;font-family:sans-serif;font-variant-ligatures:normal;font-variant-position:normal;font-variant-caps:normal;font-variant-numeric:normal;font-variant-alternates:normal;font-variant-east-asian:normal;font-feature-settings:normal;font-variation-settings:normal;text-indent:0;text-align:start;text-decoration:none;text-decoration-line:none;text-decoration-style:solid;text-decoration-color:#000000;letter-spacing:normal;word-spacing:normal;text-transform:none;writing-mode:lr-tb;direction:ltr;text-orientation:mixed;dominant-baseline:auto;baseline-shift:baseline;text-anchor:start;white-space:normal;shape-padding:0;shape-margin:0;inline-size:0;clip-rule:nonzero;display:inline;overflow:visible;visibility:visible;isolation:auto;mix-blend-mode:normal;color-interpolation:sRGB;color-interpolation-filters:linearRGB;solid-color:#000000;solid-opacity:1;vector-effect:none;fill:#b3b3b3;fill-opacity:1;fill-rule:nonzero;stroke:none;stroke-width:3;stroke-linecap:round;stroke-linejoin:miter;stroke-miterlimit:4;stroke-dasharray:none;stroke-dashoffset:0;stroke-opacity:1.0;color-rendering:auto;image-rendering:auto;shape-rendering:auto;text-rendering:auto;enable-background:accumulate;stop-color:#000000;stop-opacity:1;" />
    <path
       id="path1040"
       d="M 69.072266 121.53711 L 69.072266 123.03711 L 69.072266 227.46289 L 277.92773 227.46289 L 277.92773 121.53711 L 69.072266 121.53711 z M 72.072266 124.53711 L 274.92773 124.53711 L 274.92773 224.46289 L 72.072266 224.46289 L 72.072266 124.53711 z "
       style="color:#000000;font-style:normal;font-variant:normal;font-weight:normal;font-stretch:normal;font-size:medium;line-height:normal;font-family:sans-serif;font-variant-ligatures:normal;font-variant-position:normal;font-variant-caps:normal;font-variant-numeric:normal;font-variant-alternates:normal;font-variant-east-asian:normal;font-feature-settings:normal;font-variation-settings:normal;text-indent:0;text-align:start;text-decoration:none;text-decoration-line:none;text-decoration-style:solid;text-decoration-color:#000000;letter-spacing:normal;word-spacing:normal;text-transform:none;writing-mode:lr-tb;direction:ltr;text-orientation:mixed;dominant-baseline:auto;baseline-shift:baseline;text-anchor:start;white-space:normal;shape-padding:0;shape-margin:0;inline-size:0;clip-rule:nonzero;display:inline;overflow:visible;visibility:visible;isolation:auto;mix-blend-mode:normal;color-interpolation:sRGB;color-interpolation-filters:linearRGB;solid-color:#000000;solid-opacity:1;vector-effect:none;fill:#000000;fill-opacity:1;fill-rule:nonzero;stroke:none;stroke-width:3;stroke-linecap:round;stroke-linejoin:miter;stroke-miterlimit:4;stroke-dasharray:none;stroke-dashoffset:0;stroke-opacity:1.0;color-rendering:auto;image-rendering:auto;shape-rendering:auto;text-rendering:auto;enable-background:accumulate;stop-color:#000000;stop-opacity:1;" />
  </g>
  <g
     style="opacity:1"
     id="g1030">
    <path
       id="path1032"
       d="m 131.74301,40.044926 h 84.51398 v 52.232509 h -84.51398 z"
       style="color:#000000;font-style:normal;font-variant:normal;font-weight:normal;font-stretch:normal;font-size:medium;line-height:normal;font-family:sans-serif;font-variant-ligatures:normal;font-variant-position:normal;font-variant-caps:normal;font-variant-numeric:normal;font-variant-alternates:normal;font-variant-east-asian:normal;font-feature-settings:normal;font-variation-settings:normal;text-indent:0;text-align:start;text-decoration:none;text-decoration-line:none;text-decoration-style:solid;text-decoration-color:#000000;letter-spacing:normal;word-spacing:normal;text-transform:none;writing-mode:lr-tb;direction:ltr;text-orientation:mixed;dominant-baseline:auto;baseline-shift:baseline;text-anchor:start;white-space:normal;shape-padding:0;shape-margin:0;inline-size:0;clip-rule:nonzero;display:inline;overflow:visible;visibility:visible;isolation:auto;mix-blend-mode:normal;color-interpolation:sRGB;color-interpolation-filters:linearRGB;solid-color:#000000;solid-opacity:1;vector-effect:none;fill:#b3b3b3;fill-opacity:1;fill-rule:nonzero;stroke:none;stroke-width:3;stroke-linecap:round;stroke-linejoin:miter;stroke-miterlimit:4;stroke-dasharray:none;stroke-dashoffset:0;stroke-opacity:1.0;color-rendering:auto;image-rendering:auto;shape-rendering:auto;text-rendering:auto;enable-background:accumulate;stop-color:#000000;stop-opacity:1;" />
    <path
       id="path1034"
       d="M 130.24219 38.544922 L 130.24219 40.044922 L 130.24219 93.777344 L 217.75781 93.777344 L 217.75781 38.544922 L 130.24219 38.544922 z M 133.24219 41.544922 L 214.75781 41.544922 L 214.75781 90.777344 L 133.24219 90.777344 L 133.24219 41.544922 z "
       style="color:#000000;font-style:normal;font-variant:normal;font-weight:normal;font-stretch:normal;font-size:medium;line-height:normal;font-family:sans-serif;font-variant-ligatures:normal;font-variant-position:normal;font-variant-caps:normal;font-variant-numeric:normal;font-variant-alternates:normal;font-variant-east-asian:normal;font-feature-settings:normal;font-variation-settings:normal;text-indent:0;text-align:start;text-decoration:none;text-decoration-line:none;text-decoration-style:solid;text-decoration-color:#000000;letter-spacing:normal;word-spacing:normal;text-transform:none;writing-mode:lr-tb;direction:ltr;text-orientation:mixed;dominant-baseline:auto;baseline-shift:baseline;text-anchor:start;white-space:normal;shape-padding:0;shape-margin:0;inline-size:0;clip-rule:nonzero;display:inline;overflow:visible;visibility:visible;isolation:auto;mix-blend-mode:normal;color-interpolation:sRGB;color-interpolation-filters:linearRGB;solid-color:#000000;solid-opacity:1;vector-effect:none;fill:#000000;fill-opacity:1;fill-rule:nonzero;stroke:none;stroke-width:3;stroke-linecap:round;stroke-linejoin:miter;stroke-miterlimit:4;stroke-dasharray:none;stroke-dashoffset:0;stroke-opacity:1.0;color-rendering:auto;image-rendering:auto;shape-rendering:auto;text-rendering:auto;enable-background:accumulate;stop-color:#000000;stop-opacity:1;" />
  </g>
  <g
     style="opacity:1"
     id="g1024">
    <path
       id="path1026"
       d="m 212.41221,286.5097 c 0,21.49062 -17.42159,38.91221 -38.91221,38.91221 -21.49062,0 -38.91221,-17.42159 -38.91221,-38.91221 0,-21.49062 17.42159,-38.9122 38.91221,-38.9122 21.49062,0 38.91221,17.42158 38.91221,38.9122 z"
       style="color:#000000;font-style:normal;font-variant:normal;font-weight:normal;font-stretch:normal;font-size:medium;line-height:normal;font-family:sans-serif;font-variant-ligatures:normal;font-variant-position:normal;font-variant-caps:normal;font-variant-numeric:normal;font-variant-alternates:normal;font-variant-east-asian:normal;font-feature-settings:normal;font-variation-settings:normal;text-indent:0;text-align:start;text-decoration:none;text-decoration-line:none;text-decoration-style:solid;text-decoration-color:#000000;letter-spacing:normal;word-spacing:normal;text-transform:none;writing-mode:lr-tb;direction:ltr;text-orientation:mixed;dominant-baseline:auto;baseline-shift:baseline;text-anchor:start;white-space:normal;shape-padding:0;shape-margin:0;inline-size:0;clip-rule:nonzero;display:inline;overflow:visible;visibility:visible;isolation:auto;mix-blend-mode:normal;color-interpolation:sRGB;color-interpolation-filters:linearRGB;solid-color:#000000;solid-opacity:1;vector-effect:none;fill:#b3b3b3;fill-opacity:1;fill-rule:nonzero;stroke:none;stroke-width:3;stroke-linecap:round;stroke-linejoin:miter;stroke-miterlimit:4;stroke-dasharray:none;stroke-dashoffset:0;stroke-opacity:1.0;color-rendering:auto;image-rendering:auto;shape-rendering:auto;text-rendering:auto;enable-background:accumulate;stop-color:#000000;stop-opacity:1;" />
    <path
       id="path1028"
       d="M 173.5 246.09766 C 151.19872 246.09766 133.0879 264.20849 133.08789 286.50977 C 133.08789 308.81105 151.19872 326.92188 173.5 326.92188 C 195.80128 326.92188 213.91211 308.81105 213.91211 286.50977 C 213.9121 264.20849 195.80128 246.09766 173.5 246.09766 z M 173.5 249.09766 C 194.17996 249.09766 210.9121 265.82981 210.91211 286.50977 C 210.91211 307.18973 194.17996 323.92188 173.5 323.92188 C 152.82004 323.92188 136.08789 307.18973 136.08789 286.50977 C 136.0879 265.82981 152.82004 249.09766 173.5 249.09766 z "
       style="color:#000000;font-style:normal;font-variant:normal;font-weight:normal;font-stretch:normal;font-size:medium;line-height:normal;font-family:sans-serif;font-variant-ligatures:normal;font-variant-position:normal;font-variant-caps:normal;font-variant-numeric:normal;font-variant-alternates:normal;font-variant-east-asian:normal;font-feature-settings:normal;font-variation-settings:normal;text-indent:0;text-align:start;text-decoration:none;text-decoration-line:none;text-decoration-style:solid;text-decoration-color:#000000;letter-spacing:normal;word-spacing:normal;text-transform:none;writing-mode:lr-tb;direction:ltr;text-orientation:mixed;dominant-baseline:auto;baseline-shift:baseline;text-anchor:start;white-space:normal;shape-padding:0;shape-margin:0;inline-size:0;clip-rule:nonzero;display:inline;overflow:visible;visibility:visible;isolation:auto;mix-blend-mode:normal;color-interpolation:sRGB;color-interpolation-filters:linearRGB;solid-color:#000000;solid-opacity:1;vector-effect:none;fill:#000000;fill-opacity:1;fill-rule:nonzero;stroke:none;stroke-width:3;stroke-linecap:round;stroke-linejoin:miter;stroke-miterlimit:4;stroke-dasharray:none;stroke-dashoffset:0;stroke-opacity:1.0;color-rendering:auto;image-rendering:auto;shape-rendering:auto;text-rendering:auto;enable-background:accumulate;stop-color:#000000;stop-opacity:1;" />
  </g>
  <g
     transform="translate(-0.66072845)"
     id="g957">
    <g
       id="g949">
      <g
         style="opacity:1"
         id="g1042">
        <path
           id="path1044"
           d="m 108.52755,286.5097 c 0,21.49062 -17.421589,38.91221 -38.912209,38.91221 -21.49062,0 -38.912209,-17.42159 -38.912208,-38.91221 5e-6,-21.49062 17.421592,-38.9122 38.912208,-38.9122 21.490616,0 38.912209,17.42158 38.912209,38.9122"
           style="color:#000000;font-style:normal;font-variant:normal;font-weight:normal;font-stretch:normal;font-size:medium;line-height:normal;font-family:sans-serif;font-variant-ligatures:normal;font-variant-position:normal;font-variant-caps:normal;font-variant-numeric:normal;font-variant-alternates:normal;font-variant-east-asian:normal;font-feature-settings:normal;font-variation-settings:normal;text-indent:0;text-align:start;text-decoration:none;text-decoration-line:none;text-decoration-style:solid;text-decoration-color:#000000;letter-spacing:normal;word-spacing:normal;text-transform:none;writing-mode:lr-tb;direction:ltr;text-orientation:mixed;dominant-baseline:auto;baseline-shift:baseline;text-anchor:start;white-space:normal;shape-padding:0;shape-margin:0;inline-size:0;clip-rule:nonzero;display:inline;overflow:visible;visibility:visible;isolation:auto;mix-blend-mode:normal;color-interpolation:sRGB;color-interpolation-filters:linearRGB;solid-color:#000000;solid-opacity:1;vector-effect:none;fill:#b3b3b3;fill-opacity:1;fill-rule:nonzero;stroke:none;stroke-width:3;stroke-linecap:round;stroke-linejoin:miter;stroke-miterlimit:4;stroke-dasharray:none;stroke-dashoffset:0;stroke-opacity:1.0;color-rendering:auto;image-rendering:auto;shape-rendering:auto;text-rendering:auto;enable-background:accumulate;stop-color:#000000;stop-opacity:1;" />
        <path
           id="path1046"
           d="M 69.615234 246.09766 C 47.313959 246.09766 29.20313 264.20849 29.203125 286.50977 C 29.203124 308.81105 47.313955 326.92187 69.615234 326.92188 C 91.814191 326.92188 109.83291 308.96898 109.99805 286.80859 C 109.99806 286.80727 109.99804 286.80601 109.99805 286.80469 A 1.5 1.5 0 0 0 110.02734 286.50977 A 1.5 1.5 0 0 0 109.99609 286.20703 A 1.5 1.5 0 0 0 109.99609 286.20312 C 109.82659 264.04648 91.811471 246.09766 69.615234 246.09766 z M 69.615234 249.09766 C 90.29519 249.09766 107.02734 265.82981 107.02734 286.50977 C 107.02734 307.18973 90.295194 323.92187 69.615234 323.92188 C 48.935275 323.92187 32.203124 307.18973 32.203125 286.50977 C 32.20313 265.82981 48.935279 249.09766 69.615234 249.09766 z "
           style="color:#000000;font-style:normal;font-variant:normal;font-weight:normal;font-stretch:normal;font-size:medium;line-height:normal;font-family:sans-serif;font-variant-ligatures:normal;font-variant-position:normal;font-variant-caps:normal;font-variant-numeric:normal;font-variant-alternates:normal;font-variant-east-asian:normal;font-feature-settings:normal;font-variation-settings:normal;text-indent:0;text-align:start;text-decoration:none;text-decoration-line:none;text-decoration-style:solid;text-decoration-color:#000000;letter-spacing:normal;word-spacing:normal;text-transform:none;writing-mode:lr-tb;direction:ltr;text-orientation:mixed;dominant-baseline:auto;baseline-shift:baseline;text-anchor:start;white-space:normal;shape-padding:0;shape-margin:0;inline-size:0;clip-rule:nonzero;display:inline;overflow:visible;visibility:visible;isolation:auto;mix-blend-mode:normal;color-interpolation:sRGB;color-interpolation-filters:linearRGB;solid-color:#000000;solid-opacity:1;vector-effect:none;fill:#000000;fill-opacity:1;fill-rule:nonzero;stroke:none;stroke-width:3;stroke-linecap:round;stroke-linejoin:miter;stroke-miterlimit:4;stroke-dasharray:none;stroke-dashoffset:0;stroke-opacity:1.0;color-rendering:auto;image-rendering:auto;shape-rendering:auto;text-rendering:auto;enable-background:accumulate;stop-color:#000000;stop-opacity:1;" />
      </g>
      <g
         style="opacity:1"
         id="g1048">
        <path
           id="path1050"
           d="m 108.52755,62.490273 c 0,21.490619 -17.42159,38.912207 -38.912209,38.912207 -21.490618,0 -38.912207,-17.421589 -38.912208,-38.912207 0,-21.490619 17.421589,-38.912208 38.912208,-38.912209 21.49062,0 38.912209,17.421589 38.912209,38.912209"
           style="color:#000000;font-style:normal;font-variant:normal;font-weight:normal;font-stretch:normal;font-size:medium;line-height:normal;font-family:sans-serif;font-variant-ligatures:normal;font-variant-position:normal;font-variant-caps:normal;font-variant-numeric:normal;font-variant-alternates:normal;font-variant-east-asian:normal;font-feature-settings:normal;font-variation-settings:normal;text-indent:0;text-align:start;text-decoration:none;text-decoration-line:none;text-decoration-style:solid;text-decoration-color:#000000;letter-spacing:normal;word-spacing:normal;text-transform:none;writing-mode:lr-tb;direction:ltr;text-orientation:mixed;dominant-baseline:auto;baseline-shift:baseline;text-anchor:start;white-space:normal;shape-padding:0;shape-margin:0;inline-size:0;clip-rule:nonzero;display:inline;overflow:visible;visibility:visible;isolation:auto;mix-blend-mode:normal;color-interpolation:sRGB;color-interpolation-filters:linearRGB;solid-color:#000000;solid-opacity:1;vector-effect:none;fill:#b3b3b3;fill-opacity:1;fill-rule:nonzero;stroke:none;stroke-width:3;stroke-linecap:round;stroke-linejoin:miter;stroke-miterlimit:4;stroke-dasharray:none;stroke-dashoffset:0;stroke-opacity:1.0;color-rendering:auto;image-rendering:auto;shape-rendering:auto;text-rendering:auto;enable-background:accumulate;stop-color:#000000;stop-opacity:1;" />
        <path
           id="path1052"
           d="M 69.615234 22.078125 C 47.313955 22.078126 29.203125 40.188955 29.203125 62.490234 C 29.203126 84.791513 47.313956 102.90234 69.615234 102.90234 C 91.814189 102.90234 109.8329 84.949449 109.99805 62.789062 C 109.99806 62.78774 109.99804 62.786478 109.99805 62.785156 A 1.5 1.5 0 0 0 110.02734 62.490234 A 1.5 1.5 0 0 0 109.99609 62.1875 A 1.5 1.5 0 0 0 109.99609 62.183594 C 109.8266 40.026949 91.811474 22.078125 69.615234 22.078125 z M 69.615234 25.078125 C 90.295194 25.078125 107.02734 41.810275 107.02734 62.490234 C 107.02734 83.170193 90.295193 99.902344 69.615234 99.902344 C 48.935276 99.902343 32.203126 83.170193 32.203125 62.490234 C 32.203125 41.810275 48.935275 25.078126 69.615234 25.078125 z "
           style="color:#000000;font-style:normal;font-variant:normal;font-weight:normal;font-stretch:normal;font-size:medium;line-height:normal;font-family:sans-serif;font-variant-ligatures:normal;font-variant-position:normal;font-variant-caps:normal;font-variant-numeric:normal;font-variant-alternates:normal;font-variant-east-asian:normal;font-feature-settings:normal;font-variation-settings:normal;text-indent:0;text-align:start;text-decoration:none;text-decoration-line:none;text-decoration-style:solid;text-decoration-color:#000000;letter-spacing:normal;word-spacing:normal;text-transform:none;writing-mode:lr-tb;direction:ltr;text-orientation:mixed;dominant-baseline:auto;baseline-shift:baseline;text-anchor:start;white-space:normal;shape-padding:0;shape-margin:0;inline-size:0;clip-rule:nonzero;display:inline;overflow:visible;visibility:visible;isolation:auto;mix-blend-mode:normal;color-interpolation:sRGB;color-interpolation-filters:linearRGB;solid-color:#000000;solid-opacity:1;vector-effect:none;fill:#000000;fill-opacity:1;fill-rule:nonzero;stroke:none;stroke-width:3;stroke-linecap:round;stroke-linejoin:miter;stroke-miterlimit:4;stroke-dasharray:none;stroke-dashoffset:0;stroke-opacity:1.0;color-rendering:auto;image-rendering:auto;shape-rendering:auto;text-rendering:auto;enable-background:accumulate;stop-color:#000000;stop-opacity:1;" />
      </g>
    </g>
    <g
       id="g945">
      <g
         style="opacity:1"
         id="g1054">
        <path
           id="path1056"
           d="m 318.61832,286.5097 c 0,21.49062 -17.42158,38.91221 -38.9122,38.91221 -21.49062,0 -38.91221,-17.42159 -38.91221,-38.91221 0,-21.49062 17.42159,-38.9122 38.91221,-38.9122 21.49061,0 38.9122,17.42159 38.9122,38.9122"
           style="color:#000000;font-style:normal;font-variant:normal;font-weight:normal;font-stretch:normal;font-size:medium;line-height:normal;font-family:sans-serif;font-variant-ligatures:normal;font-variant-position:normal;font-variant-caps:normal;font-variant-numeric:normal;font-variant-alternates:normal;font-variant-east-asian:normal;font-feature-settings:normal;font-variation-settings:normal;text-indent:0;text-align:start;text-decoration:none;text-decoration-line:none;text-decoration-style:solid;text-decoration-color:#000000;letter-spacing:normal;word-spacing:normal;text-transform:none;writing-mode:lr-tb;direction:ltr;text-orientation:mixed;dominant-baseline:auto;baseline-shift:baseline;text-anchor:start;white-space:normal;shape-padding:0;shape-margin:0;inline-size:0;clip-rule:nonzero;display:inline;overflow:visible;visibility:visible;isolation:auto;mix-blend-mode:normal;color-interpolation:sRGB;color-interpolation-filters:linearRGB;solid-color:#000000;solid-opacity:1;vector-effect:none;fill:#b3b3b3;fill-opacity:1;fill-rule:nonzero;stroke:none;stroke-width:3;stroke-linecap:round;stroke-linejoin:miter;stroke-miterlimit:4;stroke-dasharray:none;stroke-dashoffset:0;stroke-opacity:1.0;color-rendering:auto;image-rendering:auto;shape-rendering:auto;text-rendering:auto;enable-background:accumulate;stop-color:#000000;stop-opacity:1;" />
        <path
           id="path1058"
           d="M 279.70703 246.09766 C 257.40575 246.09766 239.29297 264.20849 239.29297 286.50977 C 239.29297 308.81105 257.40575 326.92188 279.70703 326.92188 C 301.90598 326.92187 319.9247 308.96898 320.08984 286.80859 C 320.08985 286.80727 320.08983 286.80601 320.08984 286.80469 A 1.5 1.5 0 0 0 320.11914 286.50977 A 1.5 1.5 0 0 0 320.0918 286.23438 C 319.93951 264.06295 301.91399 246.09766 279.70703 246.09766 z M 279.70703 249.09766 C 300.38698 249.09766 317.11914 265.82981 317.11914 286.50977 C 317.11914 307.18972 300.38699 323.92187 279.70703 323.92188 C 259.02707 323.92188 242.29297 307.18973 242.29297 286.50977 C 242.29297 265.82981 259.02707 249.09766 279.70703 249.09766 z "
           style="color:#000000;font-style:normal;font-variant:normal;font-weight:normal;font-stretch:normal;font-size:medium;line-height:normal;font-family:sans-serif;font-variant-ligatures:normal;font-variant-position:normal;font-variant-caps:normal;font-variant-numeric:normal;font-variant-alternates:normal;font-variant-east-asian:normal;font-feature-settings:normal;font-variation-settings:normal;text-indent:0;text-align:start;text-decoration:none;text-decoration-line:none;text-decoration-style:solid;text-decoration-color:#000000;letter-spacing:normal;word-spacing:normal;text-transform:none;writing-mode:lr-tb;direction:ltr;text-orientation:mixed;dominant-baseline:auto;baseline-shift:baseline;text-anchor:start;white-space:normal;shape-padding:0;shape-margin:0;inline-size:0;clip-rule:nonzero;display:inline;overflow:visible;visibility:visible;isolation:auto;mix-blend-mode:normal;color-interpolation:sRGB;color-interpolation-filters:linearRGB;solid-color:#000000;solid-opacity:1;vector-effect:none;fill:#000000;fill-opacity:1;fill-rule:nonzero;stroke:none;stroke-width:3;stroke-linecap:round;stroke-linejoin:miter;stroke-miterlimit:4;stroke-dasharray:none;stroke-dashoffset:0;stroke-opacity:1.0;color-rendering:auto;image-rendering:auto;shape-rendering:auto;text-rendering:auto;enable-background:accumulate;stop-color:#000000;stop-opacity:1;" />
      </g>
      <g
         style="opacity:1"
         id="g1060">
        <path
           id="path1062"
           d="m 318.61832,62.490273 c 0,21.490615 -17.42158,38.912207 -38.9122,38.912207 -21.49062,0 -38.91221,-17.421588 -38.91221,-38.912207 0,-21.49062 17.42159,-38.91221 38.91221,-38.912209 21.49062,5e-6 38.9122,17.421593 38.9122,38.912209"
           style="color:#000000;font-style:normal;font-variant:normal;font-weight:normal;font-stretch:normal;font-size:medium;line-height:normal;font-family:sans-serif;font-variant-ligatures:normal;font-variant-position:normal;font-variant-caps:normal;font-variant-numeric:normal;font-variant-alternates:normal;font-variant-east-asian:normal;font-feature-settings:normal;font-variation-settings:normal;text-indent:0;text-align:start;text-decoration:none;text-decoration-line:none;text-decoration-style:solid;text-decoration-color:#000000;letter-spacing:normal;word-spacing:normal;text-transform:none;writing-mode:lr-tb;direction:ltr;text-orientation:mixed;dominant-baseline:auto;baseline-shift:baseline;text-anchor:start;white-space:normal;shape-padding:0;shape-margin:0;inline-size:0;clip-rule:nonzero;display:inline;overflow:visible;visibility:visible;isolation:auto;mix-blend-mode:normal;color-interpolation:sRGB;color-interpolation-filters:linearRGB;solid-color:#000000;solid-opacity:1;vector-effect:none;fill:#b3b3b3;fill-opacity:1;fill-rule:nonzero;stroke:none;stroke-width:3;stroke-linecap:round;stroke-linejoin:miter;stroke-miterlimit:4;stroke-dasharray:none;stroke-dashoffset:0;stroke-opacity:1.0;color-rendering:auto;image-rendering:auto;shape-rendering:auto;text-rendering:auto;enable-background:accumulate;stop-color:#000000;stop-opacity:1;" />
        <path
           id="path1064"
           d="M 279.70703 22.078125 C 257.40575 22.078124 239.29297 40.188954 239.29297 62.490234 C 239.29297 84.791514 257.40575 102.90234 279.70703 102.90234 C 301.90598 102.90234 319.9247 84.949446 320.08984 62.789062 C 320.08985 62.78774 320.08983 62.786478 320.08984 62.785156 A 1.5 1.5 0 0 0 320.11914 62.490234 A 1.5 1.5 0 0 0 320.0918 62.214844 C 319.93951 40.043417 301.914 22.07813 279.70703 22.078125 z M 279.70703 25.078125 C 300.38699 25.07813 317.11914 41.810278 317.11914 62.490234 C 317.11914 83.17019 300.38699 99.902339 279.70703 99.902344 C 259.02707 99.902344 242.29297 83.170193 242.29297 62.490234 C 242.29297 41.810275 259.02707 25.078124 279.70703 25.078125 z "
           style="color:#000000;font-style:normal;font-variant:normal;font-weight:normal;font-stretch:normal;font-size:medium;line-height:normal;font-family:sans-serif;font-variant-ligatures:normal;font-variant-position:normal;font-variant-caps:normal;font-variant-numeric:normal;font-variant-alternates:normal;font-variant-east-asian:normal;font-feature-settings:normal;font-variation-settings:normal;text-indent:0;text-align:start;text-decoration:none;text-decoration-line:none;text-decoration-style:solid;text-decoration-color:#000000;letter-spacing:normal;word-spacing:normal;text-transform:none;writing-mode:lr-tb;direction:ltr;text-orientation:mixed;dominant-baseline:auto;baseline-shift:baseline;text-anchor:start;white-space:normal;shape-padding:0;shape-margin:0;inline-size:0;clip-rule:nonzero;display:inline;overflow:visible;visibility:visible;isolation:auto;mix-blend-mode:normal;color-interpolation:sRGB;color-interpolation-filters:linearRGB;solid-color:#000000;solid-opacity:1;vector-effect:none;fill:#000000;fill-opacity:1;fill-rule:nonzero;stroke:none;stroke-width:3;stroke-linecap:round;stroke-linejoin:miter;stroke-miterlimit:4;stroke-dasharray:none;stroke-dashoffset:0;stroke-opacity:1.0;color-rendering:auto;image-rendering:auto;shape-rendering:auto;text-rendering:auto;enable-background:accumulate;stop-color:#000000;stop-opacity:1;" />
      </g>
    </g>
  </g>
  <g
     style="font-size:83.3043px;line-height:1.25;font-family:Bahnschrift;-inkscape-font-specification:Bahnschrift;stroke-width:3.12391"
     id="text961"
     aria-label="???">
    <g
       style="opacity:1"
       id="g1006">
      <path
         id="path1008"
         d="m 132.78342,189.20433 c 0,-2.87443 0.32541,-5.43702 0.97622,-7.68775 0.65082,-2.25073 1.43722,-4.14894 2.35921,-5.69463 0.92199,-1.54569 2.1287,-3.32187 3.62015,-5.32855 1.08469,-1.49145 1.93889,-2.71172 2.56259,-3.66083 0.62369,-0.97622 1.13892,-2.04735 1.54568,-3.2134 0.40676,-1.19316 0.61014,-2.46767 0.61014,-3.82354 v -0.0407 c 0,-2.35921 -0.61014,-4.18962 -1.83041,-5.49125 -1.19317,-1.30163 -2.87444,-1.95245 -5.04382,-1.95245 -2.1965,0 -3.90489,0.81352 -5.12517,2.44056 -1.19316,1.59992 -1.8033,3.87777 -1.83041,6.83355 v 0.0407 h -8.41992 v -0.0407 c 0.10847,-3.57948 0.7864,-6.63017 2.0338,-9.15208 1.24739,-2.54903 2.99646,-4.48791 5.24719,-5.81666 2.25073,-1.32875 4.92179,-1.99312 8.01316,-1.99312 3.22695,0 5.99292,0.59658 8.29789,1.78974 2.30497,1.19316 4.05403,2.92867 5.24719,5.20652 1.22028,2.25073 1.83042,4.97602 1.83042,8.17586 v 0.0407 c 0,1.92533 -0.25761,3.66083 -0.77284,5.20652 -0.48811,1.54569 -1.09825,2.88799 -1.83042,4.02691 -0.70505,1.13893 -1.68127,2.52191 -2.92867,4.14895 -1.35586,1.73551 -2.45411,3.28119 -3.29475,4.63706 -0.84063,1.32875 -1.54568,2.94222 -2.11515,4.84043 -0.56946,1.87109 -0.85419,4.04048 -0.85419,6.50815 z m -0.20338,6.46747 h 8.70465 v 8.70465 h -8.70465 z"
         style="color:#000000;font-style:normal;font-variant:normal;font-weight:normal;font-stretch:normal;font-size:medium;line-height:1.25;font-family:Bahnschrift;-inkscape-font-specification:Bahnschrift;font-variant-ligatures:normal;font-variant-position:normal;font-variant-caps:normal;font-variant-numeric:normal;font-variant-alternates:normal;font-variant-east-asian:normal;font-feature-settings:normal;font-variation-settings:normal;text-indent:0;text-align:start;text-decoration:none;text-decoration-line:none;text-decoration-style:solid;text-decoration-color:#000000;letter-spacing:normal;word-spacing:normal;text-transform:none;writing-mode:lr-tb;direction:ltr;text-orientation:mixed;dominant-baseline:auto;baseline-shift:baseline;text-anchor:start;white-space:normal;shape-padding:0;shape-margin:0;inline-size:0;clip-rule:nonzero;display:inline;overflow:visible;visibility:visible;isolation:auto;mix-blend-mode:normal;color-interpolation:sRGB;color-interpolation-filters:linearRGB;solid-color:#000000;solid-opacity:1;vector-effect:none;fill:#000000;fill-opacity:1;fill-rule:nonzero;stroke-width:3.12391;stroke-linecap:butt;stroke-linejoin:miter;stroke-miterlimit:4;stroke-dasharray:none;stroke-dashoffset:0;stroke-opacity:1.0;color-rendering:auto;image-rendering:auto;shape-rendering:auto;text-rendering:auto;enable-background:accumulate;stop-color:#000000;stop-opacity:1;stroke:none;" />
      <path
         id="path1010"
         d="M 137.50195 143.0625 C 134.18679 143.0625 131.21564 143.78358 128.69531 145.27148 C 126.1788 146.75714 124.20501 148.95741 122.8418 151.74023 C 121.47217 154.50925 120.76011 157.78754 120.64648 161.53711 L 120.64648 161.5625 L 120.64648 163.1875 L 132.18945 163.1875 L 132.18945 161.59961 C 132.21466 158.85139 132.78996 156.92049 133.71094 155.68555 C 134.66051 154.42188 135.7755 153.87305 137.58398 153.87305 C 139.44097 153.87305 140.60202 154.36432 141.47656 155.31836 L 141.48242 155.32617 L 141.48828 155.33203 C 142.38651 156.29015 142.89453 157.66595 142.89453 159.75586 L 142.89453 159.79492 C 142.89453 160.9939 142.7172 162.09165 142.36914 163.11328 C 142.36894 163.11387 142.36934 163.11465 142.36914 163.11523 C 142.00041 164.16987 141.53864 165.12536 140.98633 165.99023 C 140.98588 165.99094 140.98483 165.99148 140.98438 165.99219 C 140.38536 166.903 139.55159 168.09745 138.48633 169.5625 C 136.97227 171.59961 135.73681 173.41296 134.77734 175.02148 C 133.76732 176.71476 132.93875 178.73388 132.25977 181.08203 C 131.55967 183.50321 131.2207 186.21276 131.2207 189.20508 L 131.2207 190.76562 L 132.7832 190.76562 L 142.64258 190.76562 L 142.64258 189.20508 C 142.64258 186.85755 142.91592 184.83851 143.42969 183.15039 L 143.43164 183.14844 L 143.43164 183.14453 C 143.96915 181.35286 144.62493 179.87083 145.37109 178.69141 L 145.375 178.68555 L 145.37891 178.67969 C 146.17864 177.38979 147.24539 175.8831 148.57617 174.17969 L 148.58008 174.17383 L 148.58594 174.16992 C 149.84779 172.52403 150.84222 171.11666 151.58789 169.91406 C 151.58893 169.91244 151.5888 169.90982 151.58984 169.9082 C 152.40648 168.63678 153.06683 167.17351 153.58789 165.52734 C 154.16261 163.79946 154.43945 161.89703 154.43945 159.83594 L 154.43945 159.79492 C 154.43945 156.40129 153.78801 153.4079 152.42383 150.88672 C 151.09083 148.34617 149.08222 146.35297 146.51758 145.02539 C 143.94833 143.69543 140.92142 143.0625 137.50195 143.0625 z M 137.50195 146.18555 C 140.5364 146.18555 143.04133 146.74442 145.08203 147.80078 C 147.12434 148.85798 148.61072 150.33282 149.66406 152.34375 L 149.66797 152.35352 L 149.67383 152.36328 C 150.74628 154.34136 151.31445 156.79364 151.31445 159.79492 L 151.31445 159.83594 C 151.31445 161.62194 151.07675 163.18772 150.62305 164.54883 L 150.61914 164.56055 L 150.61523 164.57227 C 150.16148 166.00915 149.60468 167.22325 148.96094 168.22461 L 148.95312 168.23633 L 148.94531 168.24805 C 148.28205 169.31948 147.33225 170.66743 146.10547 172.26758 L 146.11523 172.25781 C 144.73762 174.02117 143.61108 175.60228 142.73047 177.02148 C 142.73018 177.02195 142.73076 177.02297 142.73047 177.02344 C 141.79678 178.49962 141.04233 180.2408 140.44141 182.24219 C 140.44123 182.24277 140.44158 182.24356 140.44141 182.24414 C 140.44095 182.24567 140.43991 182.24651 140.43945 182.24805 C 139.948 183.86475 139.71545 185.69535 139.61523 187.64258 L 134.43945 187.64258 C 134.53937 185.55003 134.77933 183.61267 135.25977 181.95117 C 135.88242 179.79786 136.62699 178.02114 137.46094 176.62305 C 138.34544 175.14019 139.52336 173.40203 140.99219 171.42578 L 140.99805 171.41797 L 141.00195 171.41211 C 142.09559 169.90837 142.96171 168.67205 143.60742 167.68945 L 143.61328 167.68164 L 143.61719 167.67383 C 144.30985 166.58966 144.87838 165.40528 145.32227 164.13281 L 145.32422 164.12891 L 145.32617 164.12305 C 145.79124 162.75885 146.01953 161.30698 146.01953 159.79492 L 146.01953 159.75586 C 146.01953 157.13075 145.30771 154.84779 143.76953 153.20312 C 142.25797 151.55963 140.06148 150.75 137.58398 150.75 C 135.00182 150.75 132.69917 151.82754 131.20898 153.81445 L 131.20703 153.81641 L 131.20508 153.81836 C 129.99478 155.44127 129.45833 157.60957 129.25195 160.06445 L 123.95508 160.06445 C 124.19056 157.38916 124.704 155.0186 125.64062 153.125 L 125.64258 153.12305 L 125.64453 153.11914 C 126.77599 150.80702 128.30023 149.13161 130.2832 147.96094 C 132.26435 146.79135 134.63437 146.18555 137.50195 146.18555 z M 131.01758 194.10938 L 131.01758 195.67188 L 131.01758 205.9375 L 142.8457 205.9375 L 142.8457 194.10938 L 131.01758 194.10938 z M 134.14258 197.23438 L 139.72266 197.23438 L 139.72266 202.81445 L 134.14258 202.81445 L 134.14258 197.23438 z "
         style="color:#000000;font-style:normal;font-variant:normal;font-weight:normal;font-stretch:normal;font-size:medium;line-height:1.25;font-family:Bahnschrift;-inkscape-font-specification:Bahnschrift;font-variant-ligatures:normal;font-variant-position:normal;font-variant-caps:normal;font-variant-numeric:normal;font-variant-alternates:normal;font-variant-east-asian:normal;font-feature-settings:normal;font-variation-settings:normal;text-indent:0;text-align:start;text-decoration:none;text-decoration-line:none;text-decoration-style:solid;text-decoration-color:#000000;letter-spacing:normal;word-spacing:normal;text-transform:none;writing-mode:lr-tb;direction:ltr;text-orientation:mixed;dominant-baseline:auto;baseline-shift:baseline;text-anchor:start;white-space:normal;shape-padding:0;shape-margin:0;inline-size:0;clip-rule:nonzero;display:inline;overflow:visible;visibility:visible;isolation:auto;mix-blend-mode:normal;color-interpolation:sRGB;color-interpolation-filters:linearRGB;solid-color:#000000;solid-opacity:1;vector-effect:none;fill-opacity:1;fill-rule:nonzero;stroke-width:3.12391;stroke-linecap:butt;stroke-linejoin:miter;stroke-miterlimit:4;stroke-dasharray:none;stroke-dashoffset:0;stroke-opacity:1.0;color-rendering:auto;image-rendering:auto;shape-rendering:auto;text-rendering:auto;enable-background:accumulate;stop-color:#000000;stop-opacity:1;stroke:none;" />
    </g>
    <g
       style="opacity:1"
       id="g1012">
      <path
         id="path1014"
         d="m 168.74094,189.20433 c 0,-2.87443 0.32541,-5.43702 0.97622,-7.68775 0.65081,-2.25073 1.43722,-4.14894 2.35921,-5.69463 0.92199,-1.54569 2.1287,-3.32187 3.62015,-5.32855 1.08469,-1.49145 1.93889,-2.71172 2.56259,-3.66083 0.62369,-0.97622 1.13892,-2.04735 1.54568,-3.2134 0.40676,-1.19316 0.61014,-2.46767 0.61014,-3.82354 v -0.0407 c 0,-2.35921 -0.61014,-4.18962 -1.83042,-5.49125 -1.19316,-1.30163 -2.87443,-1.95245 -5.04381,-1.95245 -2.1965,0 -3.90489,0.81352 -5.12517,2.44056 -1.19316,1.59992 -1.8033,3.87777 -1.83041,6.83355 v 0.0407 h -8.41992 v -0.0407 c 0.10847,-3.57948 0.7864,-6.63017 2.0338,-9.15208 1.24739,-2.54903 2.99646,-4.48791 5.24719,-5.81666 2.25073,-1.32875 4.92179,-1.99312 8.01316,-1.99312 3.22695,0 5.99292,0.59658 8.29789,1.78974 2.30497,1.19316 4.05403,2.92867 5.24719,5.20652 1.22028,2.25073 1.83042,4.97602 1.83042,8.17586 v 0.0407 c 0,1.92533 -0.25761,3.66083 -0.77284,5.20652 -0.48811,1.54569 -1.09825,2.88799 -1.83042,4.02691 -0.70505,1.13893 -1.68128,2.52191 -2.92867,4.14895 -1.35586,1.73551 -2.45411,3.28119 -3.29475,4.63706 -0.84063,1.32875 -1.54568,2.94222 -2.11515,4.84043 -0.56946,1.87109 -0.85419,4.04048 -0.85419,6.50815 z m -0.20338,6.46747 h 8.70465 v 8.70465 h -8.70465 z"
         style="color:#000000;font-style:normal;font-variant:normal;font-weight:normal;font-stretch:normal;font-size:medium;line-height:1.25;font-family:Bahnschrift;-inkscape-font-specification:Bahnschrift;font-variant-ligatures:normal;font-variant-position:normal;font-variant-caps:normal;font-variant-numeric:normal;font-variant-alternates:normal;font-variant-east-asian:normal;font-feature-settings:normal;font-variation-settings:normal;text-indent:0;text-align:start;text-decoration:none;text-decoration-line:none;text-decoration-style:solid;text-decoration-color:#000000;letter-spacing:normal;word-spacing:normal;text-transform:none;writing-mode:lr-tb;direction:ltr;text-orientation:mixed;dominant-baseline:auto;baseline-shift:baseline;text-anchor:start;white-space:normal;shape-padding:0;shape-margin:0;inline-size:0;clip-rule:nonzero;display:inline;overflow:visible;visibility:visible;isolation:auto;mix-blend-mode:normal;color-interpolation:sRGB;color-interpolation-filters:linearRGB;solid-color:#000000;solid-opacity:1;vector-effect:none;fill:#000000;fill-opacity:1;fill-rule:nonzero;stroke-width:3.12391;stroke-linecap:butt;stroke-linejoin:miter;stroke-miterlimit:4;stroke-dasharray:none;stroke-dashoffset:0;stroke-opacity:1.0;color-rendering:auto;image-rendering:auto;shape-rendering:auto;text-rendering:auto;enable-background:accumulate;stop-color:#000000;stop-opacity:1;stroke:none;" />
      <path
         id="path1016"
         d="M 173.45898 143.0625 C 170.14382 143.0625 167.17267 143.78358 164.65234 145.27148 C 162.13385 146.7583 160.1602 148.96016 158.79688 151.74609 C 157.42898 154.51398 156.71706 157.78995 156.60352 161.53711 L 156.60352 161.5625 L 156.60352 163.1875 L 168.14648 163.1875 L 168.14648 161.59961 C 168.17167 158.85367 168.74638 156.92453 169.66602 155.68945 C 170.61639 154.42229 171.73018 153.87305 173.54102 153.87305 C 175.398 153.87305 176.55906 154.36432 177.43359 155.31836 L 177.43945 155.32617 L 177.44531 155.33203 C 178.34355 156.29015 178.85352 157.66596 178.85352 159.75586 L 178.85352 159.79492 C 178.85352 160.9939 178.67423 162.09165 178.32617 163.11328 C 178.32597 163.11387 178.32637 163.11465 178.32617 163.11523 C 177.95865 164.1664 177.49911 165.11785 176.94922 165.98047 C 176.3498 166.89237 175.51207 168.09272 174.44336 169.5625 C 172.9293 171.59961 171.69384 173.41296 170.73438 175.02148 C 169.72434 176.71477 168.89578 178.73388 168.2168 181.08203 C 167.5167 183.50321 167.17969 186.21276 167.17969 189.20508 L 167.17969 190.76562 L 168.74023 190.76562 L 178.60156 190.76562 L 178.60156 189.20508 C 178.60156 186.85755 178.87295 184.83851 179.38672 183.15039 L 179.38867 183.14844 L 179.38867 183.14453 C 179.92618 181.35286 180.58196 179.87083 181.32812 178.69141 L 181.33203 178.68555 L 181.33594 178.67969 C 182.13568 177.38979 183.20242 175.8831 184.5332 174.17969 L 184.53906 174.17383 L 184.54297 174.16992 C 185.80454 172.52438 186.7993 171.11648 187.54492 169.91406 C 188.36299 168.64151 189.0232 167.17561 189.54492 165.52734 C 190.11964 163.79946 190.39648 161.89703 190.39648 159.83594 L 190.39648 159.79492 C 190.39648 156.39962 189.74447 153.40477 188.37891 150.88281 C 187.04589 148.34463 185.03759 146.35211 182.47461 145.02539 C 179.90536 143.69543 176.87845 143.0625 173.45898 143.0625 z M 173.45898 146.18555 C 176.49343 146.18555 178.99836 146.74442 181.03906 147.80078 C 183.08137 148.85798 184.56775 150.33282 185.62109 152.34375 L 185.62695 152.35352 L 185.63086 152.36328 C 186.70331 154.34136 187.27344 156.79364 187.27344 159.79492 L 187.27344 159.83594 C 187.27344 161.62194 187.03378 163.18772 186.58008 164.54883 L 186.57617 164.56055 L 186.57227 164.57227 C 186.11851 166.00915 185.56171 167.22325 184.91797 168.22461 L 184.91016 168.23633 L 184.9043 168.24805 C 184.24102 169.31948 183.28928 170.66743 182.0625 172.26758 L 182.07227 172.25781 C 180.69465 174.02117 179.56811 175.60228 178.6875 177.02148 C 178.68721 177.02195 178.68779 177.02297 178.6875 177.02344 C 177.75381 178.49962 176.99936 180.2408 176.39844 182.24219 C 176.39826 182.24277 176.39862 182.24356 176.39844 182.24414 C 176.39798 182.24567 176.39694 182.24651 176.39648 182.24805 C 175.90504 183.86475 175.67248 185.69535 175.57227 187.64258 L 170.39648 187.64258 C 170.4964 185.55003 170.73636 183.61267 171.2168 181.95117 C 171.83944 179.79786 172.58401 178.02114 173.41797 176.62305 C 174.30248 175.14019 175.48039 173.40203 176.94922 171.42578 L 176.95508 171.41797 L 176.95898 171.41211 C 178.05262 169.90837 178.91875 168.67205 179.56445 167.68945 L 179.57031 167.68164 L 179.57617 167.67383 C 180.26883 166.58966 180.83541 165.40528 181.2793 164.13281 L 181.28125 164.12891 L 181.2832 164.12305 C 181.74827 162.75885 181.97656 161.30698 181.97656 159.79492 L 181.97656 159.75586 C 181.97656 157.13179 181.26738 154.8496 179.73047 153.20508 C 178.21883 151.5594 176.02014 150.75 173.54102 150.75 C 170.95885 150.75 168.6562 151.82754 167.16602 153.81445 L 167.16406 153.81641 L 167.16406 153.81836 C 165.95376 155.44127 165.41536 157.60957 165.20898 160.06445 L 159.91211 160.06445 C 160.14759 157.38916 160.66299 155.0186 161.59961 153.125 L 161.59961 153.12305 L 161.60156 153.11914 C 162.73302 150.80702 164.25726 149.13161 166.24023 147.96094 C 168.22138 146.79135 170.5914 146.18555 173.45898 146.18555 z M 166.97656 194.10938 L 166.97656 195.67188 L 166.97656 205.9375 L 178.80469 205.9375 L 178.80469 194.10938 L 166.97656 194.10938 z M 170.09961 197.23438 L 175.67969 197.23438 L 175.67969 202.81445 L 170.09961 202.81445 L 170.09961 197.23438 z "
         style="color:#000000;font-style:normal;font-variant:normal;font-weight:normal;font-stretch:normal;font-size:medium;line-height:1.25;font-family:Bahnschrift;-inkscape-font-specification:Bahnschrift;font-variant-ligatures:normal;font-variant-position:normal;font-variant-caps:normal;font-variant-numeric:normal;font-variant-alternates:normal;font-variant-east-asian:normal;font-feature-settings:normal;font-variation-settings:normal;text-indent:0;text-align:start;text-decoration:none;text-decoration-line:none;text-decoration-style:solid;text-decoration-color:#000000;letter-spacing:normal;word-spacing:normal;text-transform:none;writing-mode:lr-tb;direction:ltr;text-orientation:mixed;dominant-baseline:auto;baseline-shift:baseline;text-anchor:start;white-space:normal;shape-padding:0;shape-margin:0;inline-size:0;clip-rule:nonzero;display:inline;overflow:visible;visibility:visible;isolation:auto;mix-blend-mode:normal;color-interpolation:sRGB;color-interpolation-filters:linearRGB;solid-color:#000000;solid-opacity:1;vector-effect:none;fill-opacity:1;fill-rule:nonzero;stroke-width:3.12391;stroke-linecap:butt;stroke-linejoin:miter;stroke-miterlimit:4;stroke-dasharray:none;stroke-dashoffset:0;stroke-opacity:1.0;color-rendering:auto;image-rendering:auto;shape-rendering:auto;text-rendering:auto;enable-background:accumulate;stop-color:#000000;stop-opacity:1;stroke:none;" />
    </g>
    <g
       style="opacity:1"
       id="g1018">
      <path
         id="path1020"
         d="m 204.69846,189.20433 c 0,-2.87443 0.32541,-5.43702 0.97622,-7.68775 0.65081,-2.25073 1.43722,-4.14894 2.35921,-5.69463 0.92199,-1.54569 2.1287,-3.32187 3.62015,-5.32855 1.08469,-1.49145 1.93889,-2.71172 2.56259,-3.66083 0.62369,-0.97622 1.13892,-2.04735 1.54568,-3.2134 0.40676,-1.19316 0.61014,-2.46767 0.61014,-3.82354 v -0.0407 c 0,-2.35921 -0.61014,-4.18962 -1.83042,-5.49125 -1.19316,-1.30163 -2.87443,-1.95245 -5.04381,-1.95245 -2.1965,0 -3.90489,0.81352 -5.12517,2.44056 -1.19316,1.59992 -1.8033,3.87777 -1.83041,6.83355 v 0.0407 h -8.41992 v -0.0407 c 0.10847,-3.57948 0.7864,-6.63017 2.0338,-9.15208 1.24739,-2.54903 2.99646,-4.48791 5.24719,-5.81666 2.25073,-1.32875 4.92179,-1.99312 8.01316,-1.99312 3.22695,0 5.99292,0.59658 8.29789,1.78974 2.30497,1.19316 4.05403,2.92867 5.24719,5.20652 1.22028,2.25073 1.83042,4.97602 1.83042,8.17586 v 0.0407 c 0,1.92533 -0.25761,3.66083 -0.77284,5.20652 -0.48811,1.54569 -1.09825,2.88799 -1.83042,4.02691 -0.70505,1.13893 -1.68128,2.52191 -2.92867,4.14895 -1.35586,1.73551 -2.45411,3.28119 -3.29475,4.63706 -0.84063,1.32875 -1.54568,2.94222 -2.11515,4.84043 -0.56946,1.87109 -0.85419,4.04048 -0.85419,6.50815 z m -0.20338,6.46747 h 8.70465 v 8.70465 h -8.70465 z"
         style="color:#000000;font-style:normal;font-variant:normal;font-weight:normal;font-stretch:normal;font-size:medium;line-height:1.25;font-family:Bahnschrift;-inkscape-font-specification:Bahnschrift;font-variant-ligatures:normal;font-variant-position:normal;font-variant-caps:normal;font-variant-numeric:normal;font-variant-alternates:normal;font-variant-east-asian:normal;font-feature-settings:normal;font-variation-settings:normal;text-indent:0;text-align:start;text-decoration:none;text-decoration-line:none;text-decoration-style:solid;text-decoration-color:#000000;letter-spacing:normal;word-spacing:normal;text-transform:none;writing-mode:lr-tb;direction:ltr;text-orientation:mixed;dominant-baseline:auto;baseline-shift:baseline;text-anchor:start;white-space:normal;shape-padding:0;shape-margin:0;inline-size:0;clip-rule:nonzero;display:inline;overflow:visible;visibility:visible;isolation:auto;mix-blend-mode:normal;color-interpolation:sRGB;color-interpolation-filters:linearRGB;solid-color:#000000;solid-opacity:1;vector-effect:none;fill:#000000;fill-opacity:1;fill-rule:nonzero;stroke-width:3.12391;stroke-linecap:butt;stroke-linejoin:miter;stroke-miterlimit:4;stroke-dasharray:none;stroke-dashoffset:0;stroke-opacity:1.0;color-rendering:auto;image-rendering:auto;shape-rendering:auto;text-rendering:auto;enable-background:accumulate;stop-color:#000000;stop-opacity:1;stroke:none;" />
      <path
         id="path1022"
         d="M 209.41602 143.0625 C 206.10085 143.0625 203.1297 143.78358 200.60938 145.27148 C 198.09089 146.7583 196.11723 148.96016 194.75391 151.74609 C 193.38601 154.51398 192.67409 157.78995 192.56055 161.53711 L 192.56055 161.5625 L 192.56055 163.1875 L 204.10547 163.1875 L 204.10547 161.59961 C 204.13066 158.85367 204.70341 156.92453 205.62305 155.68945 C 206.57342 154.42229 207.68722 153.87305 209.49805 153.87305 C 211.35503 153.87305 212.51609 154.36432 213.39062 155.31836 L 213.39648 155.32617 L 213.40234 155.33203 C 214.30058 156.29015 214.81055 157.66596 214.81055 159.75586 L 214.81055 159.79492 C 214.81055 160.9939 214.63126 162.09165 214.2832 163.11328 C 214.283 163.11387 214.2834 163.11465 214.2832 163.11523 C 213.91447 164.16987 213.45465 165.12536 212.90234 165.99023 C 212.90189 165.99094 212.90084 165.99148 212.90039 165.99219 C 212.30137 166.903 211.46566 168.09745 210.40039 169.5625 C 208.88633 171.59961 207.65283 173.41296 206.69336 175.02148 C 205.68333 176.71477 204.85281 178.73388 204.17383 181.08203 C 203.47373 183.50321 203.13672 186.21276 203.13672 189.20508 L 203.13672 190.76562 L 204.69922 190.76562 L 214.55859 190.76562 L 214.55859 189.20508 C 214.55859 186.85755 214.83193 184.83851 215.3457 183.15039 L 215.3457 183.14844 L 215.3457 183.14453 C 215.88321 181.35286 216.53899 179.87083 217.28516 178.69141 L 217.28906 178.68555 L 217.29297 178.67969 C 218.09271 177.38979 219.1614 175.8831 220.49219 174.17969 L 220.49609 174.17383 L 220.5 174.16992 C 221.76185 172.52403 222.75823 171.11665 223.50391 169.91406 C 223.50495 169.91244 223.50482 169.90982 223.50586 169.9082 C 224.32249 168.63678 224.98284 167.17351 225.50391 165.52734 C 226.07863 163.79946 226.35352 161.89703 226.35352 159.83594 L 226.35352 159.79492 C 226.35352 156.40129 225.70402 153.4079 224.33984 150.88672 C 223.00684 148.34617 220.99824 146.35297 218.43359 145.02539 C 215.86435 143.69543 212.83548 143.0625 209.41602 143.0625 z M 209.41602 146.18555 C 212.45046 146.18555 214.95539 146.74442 216.99609 147.80078 C 219.0384 148.85798 220.52478 150.33282 221.57812 152.34375 L 221.58398 152.35352 L 221.58789 152.36328 C 222.66035 154.34136 223.23047 156.79364 223.23047 159.79492 L 223.23047 159.83594 C 223.23047 161.62194 222.99081 163.18772 222.53711 164.54883 L 222.5332 164.56055 L 222.5293 164.57227 C 222.07554 166.00915 221.51874 167.22325 220.875 168.22461 L 220.86719 168.23633 L 220.86133 168.24805 C 220.19805 169.31948 219.24826 170.66743 218.02148 172.26758 C 216.64788 174.02639 215.52521 175.60531 214.64648 177.02148 C 214.64619 177.02195 214.64678 177.02297 214.64648 177.02344 C 213.7128 178.49962 212.95639 180.2408 212.35547 182.24219 C 212.35529 182.24277 212.35565 182.24356 212.35547 182.24414 C 212.35501 182.24567 212.35398 182.24651 212.35352 182.24805 C 211.86207 183.86475 211.62951 185.69535 211.5293 187.64258 L 206.35352 187.64258 C 206.45343 185.55003 206.69535 183.61267 207.17578 181.95117 C 207.79842 179.79786 208.54105 178.02114 209.375 176.62305 C 210.25951 175.14019 211.43937 173.40203 212.9082 171.42578 L 212.91211 171.41797 L 212.91797 171.41211 C 214.0116 169.90837 214.87578 168.67205 215.52148 167.68945 L 215.52734 167.68164 L 215.5332 167.67383 C 216.22586 166.58966 216.79244 165.40528 217.23633 164.13281 L 217.23828 164.12891 L 217.24023 164.12305 C 217.7053 162.75885 217.93359 161.30698 217.93359 159.79492 L 217.93359 159.75586 C 217.93359 157.13179 217.22442 154.8496 215.6875 153.20508 C 214.17586 151.5594 211.97717 150.75 209.49805 150.75 C 206.91588 150.75 204.61323 151.82754 203.12305 153.81445 L 203.12305 153.81641 L 203.12109 153.81836 C 201.91079 155.44127 201.3724 157.60957 201.16602 160.06445 L 195.86914 160.06445 C 196.10462 157.38916 196.62002 155.0186 197.55664 153.125 L 197.55859 153.12305 L 197.55859 153.11914 C 198.69006 150.80702 200.21429 149.13161 202.19727 147.96094 C 204.17841 146.79135 206.54843 146.18555 209.41602 146.18555 z M 202.93359 194.10938 L 202.93359 195.67188 L 202.93359 205.9375 L 214.76172 205.9375 L 214.76172 194.10938 L 202.93359 194.10938 z M 206.05664 197.23438 L 211.63867 197.23438 L 211.63867 202.81445 L 206.05664 202.81445 L 206.05664 197.23438 z "
         style="color:#000000;font-style:normal;font-variant:normal;font-weight:normal;font-stretch:normal;font-size:medium;line-height:1.25;font-family:Bahnschrift;-inkscape-font-specification:Bahnschrift;font-variant-ligatures:normal;font-variant-position:normal;font-variant-caps:normal;font-variant-numeric:normal;font-variant-alternates:normal;font-variant-east-asian:normal;font-feature-settings:normal;font-variation-settings:normal;text-indent:0;text-align:start;text-decoration:none;text-decoration-line:none;text-decoration-style:solid;text-decoration-color:#000000;letter-spacing:normal;word-spacing:normal;text-transform:none;writing-mode:lr-tb;direction:ltr;text-orientation:mixed;dominant-baseline:auto;baseline-shift:baseline;text-anchor:start;white-space:normal;shape-padding:0;shape-margin:0;inline-size:0;clip-rule:nonzero;display:inline;overflow:visible;visibility:visible;isolation:auto;mix-blend-mode:normal;color-interpolation:sRGB;color-interpolation-filters:linearRGB;solid-color:#000000;solid-opacity:1;vector-effect:none;fill-opacity:1;fill-rule:nonzero;stroke-width:3.12391;stroke-linecap:butt;stroke-linejoin:miter;stroke-miterlimit:4;stroke-dasharray:none;stroke-dashoffset:0;stroke-opacity:1.0;color-rendering:auto;image-rendering:auto;shape-rendering:auto;text-rendering:auto;enable-background:accumulate;stop-color:#000000;stop-opacity:1;stroke:none;" />
    </g>
  </g>
  <g
     style="font-size:41.2307px;line-height:1.25;font-family:Bahnschrift;-inkscape-font-specification:Bahnschrift;stroke-width:1.54615"
     id="text965"
     aria-label="???">
    <g
       style="opacity:1"
       id="g988">
      <path
         id="path990"
         d="m 153.8477,73.438955 c 0,-1.422674 0.16106,-2.691001 0.48317,-3.804982 0.32211,-1.113981 0.71134,-2.053482 1.16767,-2.818505 0.45633,-0.765023 1.05358,-1.644128 1.79176,-2.637315 0.53686,-0.73818 0.95964,-1.342145 1.26833,-1.811896 0.30869,-0.483173 0.5637,-1.01332 0.76502,-1.590442 0.20132,-0.590544 0.30198,-1.221352 0.30198,-1.892425 v -0.02013 c 0,-1.167667 -0.30198,-2.073615 -0.90594,-2.717844 -0.59055,-0.64423 -1.42268,-0.966345 -2.49639,-0.966345 -1.08714,0 -1.93269,0.402644 -2.53666,1.207931 -0.59055,0.791865 -0.89253,1.919267 -0.90595,3.382206 v 0.02013 h -4.16736 v -0.02013 c 0.0537,-1.771632 0.3892,-3.281545 1.00661,-4.52974 0.61739,-1.261617 1.48307,-2.221251 2.59705,-2.878902 1.11398,-0.657651 2.43599,-0.986477 3.96604,-0.986477 1.59715,0 2.96614,0.295272 4.10697,0.885816 1.14082,0.590544 2.0065,1.449517 2.59705,2.576919 0.60396,1.113981 0.90594,2.462837 0.90594,4.046568 v 0.02013 c 0,0.952923 -0.1275,1.811896 -0.38251,2.576919 -0.24159,0.765023 -0.54357,1.429385 -0.90595,1.993086 -0.34895,0.563701 -0.83212,1.248195 -1.44951,2.053482 -0.67107,0.858973 -1.21464,1.623995 -1.63071,2.295068 -0.41607,0.657651 -0.76502,1.456228 -1.04687,2.395729 -0.28185,0.926081 -0.42278,1.999797 -0.42278,3.221149 z m -0.10066,3.201016 h 4.30828 v 4.308286 h -4.30828 z"
         style="color:#000000;font-style:normal;font-variant:normal;font-weight:normal;font-stretch:normal;font-size:medium;line-height:1.25;font-family:Bahnschrift;-inkscape-font-specification:Bahnschrift;font-variant-ligatures:normal;font-variant-position:normal;font-variant-caps:normal;font-variant-numeric:normal;font-variant-alternates:normal;font-variant-east-asian:normal;font-feature-settings:normal;font-variation-settings:normal;text-indent:0;text-align:start;text-decoration:none;text-decoration-line:none;text-decoration-style:solid;text-decoration-color:#000000;letter-spacing:normal;word-spacing:normal;text-transform:none;writing-mode:lr-tb;direction:ltr;text-orientation:mixed;dominant-baseline:auto;baseline-shift:baseline;text-anchor:start;white-space:normal;shape-padding:0;shape-margin:0;inline-size:0;clip-rule:nonzero;display:inline;overflow:visible;visibility:visible;isolation:auto;mix-blend-mode:normal;color-interpolation:sRGB;color-interpolation-filters:linearRGB;solid-color:#000000;solid-opacity:1;vector-effect:none;fill:#000000;fill-opacity:1;fill-rule:nonzero;stroke-width:1.54615;stroke-linecap:butt;stroke-linejoin:miter;stroke-miterlimit:4;stroke-dasharray:none;stroke-dashoffset:0;stroke-opacity:1.0;color-rendering:auto;image-rendering:auto;shape-rendering:auto;text-rendering:auto;enable-background:accumulate;stop-color:#000000;stop-opacity:1;stroke:none;" />
      <path
         id="path992"
         d="M 156.18359 50.601562 C 154.54278 50.601562 153.07163 50.958889 151.82422 51.695312 C 150.57893 52.430482 149.60243 53.519524 148.92773 54.896484 C 148.92747 54.897017 148.928 54.897905 148.92773 54.898438 C 148.92732 54.899279 148.92619 54.899549 148.92578 54.900391 C 148.24909 56.270103 147.89601 57.891966 147.83984 59.746094 L 147.83984 59.757812 L 147.83984 60.5625 L 153.55469 60.5625 L 153.55469 59.775391 C 153.56717 58.415182 153.85081 57.460833 154.30664 56.849609 C 154.77662 56.224185 155.32757 55.951172 156.22266 55.951172 C 157.14175 55.951172 157.71754 56.195775 158.15039 56.667969 L 158.15234 56.671875 L 158.15625 56.673828 C 158.60082 57.14804 158.85352 57.828902 158.85352 58.863281 L 158.85352 58.882812 C 158.85352 59.476578 158.76426 60.019497 158.5918 60.525391 C 158.4091 61.048118 158.18005 61.520657 157.90625 61.949219 C 157.60872 62.40164 157.19606 62.993847 156.66602 63.722656 C 155.91885 64.728257 155.30784 65.625515 154.83398 66.419922 C 154.33408 67.257996 153.92395 68.257723 153.58789 69.419922 C 153.24138 70.618265 153.07422 71.958434 153.07422 73.439453 L 153.07422 74.212891 L 153.84766 74.212891 L 158.72852 74.212891 L 158.72852 73.439453 C 158.72852 72.277569 158.8629 71.278876 159.11719 70.443359 L 159.11719 70.441406 L 159.11719 70.439453 C 159.38322 69.552682 159.70882 68.820071 160.07812 68.236328 L 160.08008 68.232422 L 160.08203 68.228516 C 160.47785 67.590095 161.0054 66.846993 161.66406 66.003906 L 161.66602 66 L 161.66797 65.998047 C 162.29254 65.183393 162.78523 64.485855 163.1543 63.890625 C 163.55896 63.261146 163.88638 62.535927 164.14453 61.720703 C 164.4292 60.865252 164.56641 59.924795 164.56641 58.904297 L 164.56641 58.882812 C 164.56641 57.202485 164.2441 55.720808 163.56836 54.472656 C 162.90859 53.216191 161.9132 52.230946 160.64453 51.574219 C 159.37291 50.915967 157.87603 50.601562 156.18359 50.601562 z M 156.18359 52.146484 C 157.68547 52.146484 158.92552 52.424429 159.93555 52.947266 C 160.94637 53.470516 161.68178 54.200018 162.20312 55.195312 L 162.20508 55.201172 L 162.20703 55.205078 C 162.73783 56.184112 163.01953 57.397353 163.01953 58.882812 L 163.01953 58.904297 C 163.01953 59.788261 162.90229 60.562659 162.67773 61.236328 L 162.67578 61.242188 L 162.67383 61.248047 C 162.44925 61.959219 162.17213 62.559067 161.85352 63.054688 L 161.85156 63.060547 L 161.84766 63.066406 C 161.51938 63.5967 161.04859 64.264663 160.44141 65.056641 C 159.76019 65.928939 159.20283 66.712047 158.76758 67.414062 C 158.30704 68.143341 157.93538 69.00432 157.63867 69.992188 C 157.39869 70.780698 157.33689 71.718577 157.28516 72.666016 L 154.71875 72.666016 C 154.77071 71.652392 154.84064 70.657394 155.07422 69.849609 C 155.38239 68.783847 155.74935 67.902909 156.16211 67.210938 C 156.59989 66.477015 157.18317 65.616799 157.91016 64.638672 L 157.91406 64.636719 L 157.91602 64.632812 C 158.4573 63.888549 158.88549 63.277342 159.20508 62.791016 L 159.20703 62.787109 L 159.21094 62.783203 C 159.55376 62.246604 159.83304 61.661047 160.05273 61.03125 L 160.05469 61.027344 L 160.05469 61.025391 C 160.28487 60.350196 160.39844 59.631192 160.39844 58.882812 L 160.39844 58.863281 C 160.39844 57.564026 160.04644 56.435104 159.28516 55.621094 C 158.537 54.80701 157.44936 54.40625 156.22266 54.40625 C 154.94463 54.40625 153.80591 54.940424 153.06836 55.923828 L 153.06641 55.925781 C 152.46753 56.728812 152.20185 57.801023 152.09961 59.015625 L 149.55859 59.015625 C 149.68005 57.72667 149.85842 56.500023 150.3125 55.582031 L 150.31445 55.580078 C 150.87446 54.435715 151.62792 53.604805 152.60938 53.025391 C 153.58992 52.446512 154.76431 52.146484 156.18359 52.146484 z M 152.97461 75.867188 L 152.97461 76.640625 L 152.97461 81.720703 L 158.82812 81.720703 L 158.82812 75.867188 L 152.97461 75.867188 z M 154.51953 77.412109 L 157.2832 77.412109 L 157.2832 80.175781 L 154.51953 80.175781 L 154.51953 77.412109 z "
         style="color:#000000;font-style:normal;font-variant:normal;font-weight:normal;font-stretch:normal;font-size:medium;line-height:1.25;font-family:Bahnschrift;-inkscape-font-specification:Bahnschrift;font-variant-ligatures:normal;font-variant-position:normal;font-variant-caps:normal;font-variant-numeric:normal;font-variant-alternates:normal;font-variant-east-asian:normal;font-feature-settings:normal;font-variation-settings:normal;text-indent:0;text-align:start;text-decoration:none;text-decoration-line:none;text-decoration-style:solid;text-decoration-color:#000000;letter-spacing:normal;word-spacing:normal;text-transform:none;writing-mode:lr-tb;direction:ltr;text-orientation:mixed;dominant-baseline:auto;baseline-shift:baseline;text-anchor:start;white-space:normal;shape-padding:0;shape-margin:0;inline-size:0;clip-rule:nonzero;display:inline;overflow:visible;visibility:visible;isolation:auto;mix-blend-mode:normal;color-interpolation:sRGB;color-interpolation-filters:linearRGB;solid-color:#000000;solid-opacity:1;vector-effect:none;fill-opacity:1;fill-rule:nonzero;stroke-width:1.54615;stroke-linecap:butt;stroke-linejoin:miter;stroke-miterlimit:4;stroke-dasharray:none;stroke-dashoffset:0;stroke-opacity:1.0;color-rendering:auto;image-rendering:auto;shape-rendering:auto;text-rendering:auto;enable-background:accumulate;stop-color:#000000;stop-opacity:1;stroke:none;" />
    </g>
    <g
       style="opacity:1"
       id="g994">
      <path
         id="path996"
         d="m 171.64454,73.438955 c 0,-1.422674 0.16106,-2.691001 0.48318,-3.804982 0.32211,-1.113981 0.71133,-2.053482 1.16766,-2.818505 0.45633,-0.765023 1.05359,-1.644128 1.79177,-2.637315 0.53685,-0.73818 0.95963,-1.342145 1.26832,-1.811896 0.30869,-0.483173 0.5637,-1.01332 0.76503,-1.590442 0.20132,-0.590544 0.30198,-1.221352 0.30198,-1.892425 v -0.02013 c 0,-1.167667 -0.30198,-2.073615 -0.90595,-2.717844 -0.59054,-0.64423 -1.42267,-0.966345 -2.49639,-0.966345 -1.08714,0 -1.93269,0.402644 -2.53665,1.207931 -0.59055,0.791865 -0.89253,1.919267 -0.90595,3.382206 v 0.02013 h -4.16736 v -0.02013 c 0.0537,-1.771632 0.3892,-3.281545 1.00661,-4.52974 0.61739,-1.261617 1.48307,-2.221251 2.59705,-2.878902 1.11398,-0.657651 2.43599,-0.986477 3.96604,-0.986477 1.59715,0 2.96614,0.295272 4.10696,0.885816 1.14083,0.590544 2.00651,1.449517 2.59705,2.576919 0.60397,1.113981 0.90595,2.462837 0.90595,4.046568 v 0.02013 c 0,0.952923 -0.1275,1.811896 -0.38251,2.576919 -0.24159,0.765023 -0.54357,1.429385 -0.90595,1.993086 -0.34896,0.563701 -0.83213,1.248195 -1.44952,2.053482 -0.67107,0.858973 -1.21463,1.623995 -1.6307,2.295068 -0.41607,0.657651 -0.76503,1.456228 -1.04688,2.395729 -0.28185,0.926081 -0.42277,1.999797 -0.42277,3.221149 z m -0.10066,3.201016 h 4.30829 v 4.308286 h -4.30829 z"
         style="color:#000000;font-style:normal;font-variant:normal;font-weight:normal;font-stretch:normal;font-size:medium;line-height:1.25;font-family:Bahnschrift;-inkscape-font-specification:Bahnschrift;font-variant-ligatures:normal;font-variant-position:normal;font-variant-caps:normal;font-variant-numeric:normal;font-variant-alternates:normal;font-variant-east-asian:normal;font-feature-settings:normal;font-variation-settings:normal;text-indent:0;text-align:start;text-decoration:none;text-decoration-line:none;text-decoration-style:solid;text-decoration-color:#000000;letter-spacing:normal;word-spacing:normal;text-transform:none;writing-mode:lr-tb;direction:ltr;text-orientation:mixed;dominant-baseline:auto;baseline-shift:baseline;text-anchor:start;white-space:normal;shape-padding:0;shape-margin:0;inline-size:0;clip-rule:nonzero;display:inline;overflow:visible;visibility:visible;isolation:auto;mix-blend-mode:normal;color-interpolation:sRGB;color-interpolation-filters:linearRGB;solid-color:#000000;solid-opacity:1;vector-effect:none;fill:#000000;fill-opacity:1;fill-rule:nonzero;stroke-width:1.54615;stroke-linecap:butt;stroke-linejoin:miter;stroke-miterlimit:4;stroke-dasharray:none;stroke-dashoffset:0;stroke-opacity:1.0;color-rendering:auto;image-rendering:auto;shape-rendering:auto;text-rendering:auto;enable-background:accumulate;stop-color:#000000;stop-opacity:1;stroke:none;" />
      <path
         id="path998"
         d="M 173.98047 50.601562 C 172.33966 50.601562 170.8685 50.958889 169.62109 51.695312 C 168.37581 52.430482 167.39931 53.519524 166.72461 54.896484 C 166.72435 54.897017 166.72487 54.897905 166.72461 54.898438 C 166.7242 54.899279 166.72307 54.899549 166.72266 54.900391 C 166.04596 56.270103 165.69288 57.891966 165.63672 59.746094 L 165.63672 59.757812 L 165.63672 60.5625 L 171.35156 60.5625 L 171.35156 59.769531 C 171.36512 58.413743 171.64862 57.459586 172.10352 56.849609 C 172.57349 56.22419 173.12445 55.951172 174.01953 55.951172 C 174.93864 55.951172 175.51443 56.195779 175.94727 56.667969 L 175.94922 56.671875 L 175.95312 56.673828 C 176.3977 57.148041 176.64844 57.828904 176.64844 58.863281 L 176.64844 58.882812 C 176.64844 59.476578 176.56113 60.019497 176.38867 60.525391 C 176.20597 61.048121 175.97693 61.520655 175.70312 61.949219 C 175.40559 62.401642 174.99293 62.993846 174.46289 63.722656 C 173.71573 64.728256 173.10472 65.625517 172.63086 66.419922 C 172.13096 67.257994 171.72082 68.257725 171.38477 69.419922 C 171.03825 70.618266 170.87109 71.958433 170.87109 73.439453 L 170.87109 74.212891 L 171.64453 74.212891 L 176.52539 74.212891 L 176.52539 73.439453 C 176.52539 72.277568 176.65978 71.278877 176.91406 70.443359 L 176.91406 70.441406 L 176.91406 70.439453 C 177.1801 69.552681 177.50569 68.820073 177.875 68.236328 L 177.87695 68.232422 L 177.87891 68.228516 C 178.27473 67.590094 178.80228 66.846994 179.46094 66.003906 L 179.46289 66 L 179.46484 65.998047 C 180.08941 65.183394 180.5821 64.485851 180.95117 63.890625 C 181.35584 63.261146 181.68325 62.535927 181.94141 61.720703 C 182.22607 60.865252 182.36328 59.924795 182.36328 58.904297 L 182.36328 58.882812 C 182.36328 57.202484 182.04099 55.720808 181.36523 54.472656 C 180.70547 53.216188 179.71009 52.230946 178.44141 51.574219 C 177.16979 50.915966 175.6729 50.601562 173.98047 50.601562 z M 173.98047 52.146484 C 175.48234 52.146484 176.7224 52.42443 177.73242 52.947266 C 178.74325 53.470516 179.47866 54.200021 180 55.195312 L 180.00195 55.201172 L 180.00391 55.205078 C 180.53471 56.184111 180.81641 57.397354 180.81641 58.882812 L 180.81641 58.904297 C 180.81641 59.788261 180.69916 60.562659 180.47461 61.236328 L 180.47266 61.242188 L 180.4707 61.248047 C 180.24612 61.959219 179.969 62.559067 179.65039 63.054688 L 179.64844 63.060547 L 179.64453 63.066406 C 179.31625 63.596703 178.84546 64.264662 178.23828 65.056641 C 177.55707 65.928938 176.9997 66.712048 176.56445 67.414062 C 176.10392 68.143339 175.73226 69.004321 175.43555 69.992188 C 175.19557 70.780697 175.13376 71.718579 175.08203 72.666016 L 172.51562 72.666016 C 172.56759 71.652393 172.63751 70.657393 172.87109 69.849609 C 173.17927 68.783845 173.54623 67.90291 173.95898 67.210938 C 174.39677 66.477013 174.98004 65.6168 175.70703 64.638672 L 175.71094 64.636719 L 175.71289 64.632812 C 176.25417 63.88855 176.68237 63.27734 177.00195 62.791016 L 177.00391 62.787109 L 177.00781 62.783203 C 177.35064 62.246606 177.62991 61.661045 177.84961 61.03125 L 177.85156 61.027344 L 177.85156 61.025391 C 178.08174 60.350196 178.19531 59.631192 178.19531 58.882812 L 178.19531 58.863281 C 178.19531 57.564024 177.84332 56.435104 177.08203 55.621094 C 176.33388 54.807006 175.24624 54.40625 174.01953 54.40625 C 172.74151 54.40625 171.60278 54.940422 170.86523 55.923828 L 170.86328 55.925781 C 170.26441 56.728812 169.99872 57.801023 169.89648 59.015625 L 167.35547 59.015625 C 167.47693 57.72667 167.6553 56.500023 168.10938 55.582031 L 168.11133 55.580078 C 168.67134 54.435715 169.42479 53.604805 170.40625 53.025391 C 171.3868 52.446512 172.56118 52.146484 173.98047 52.146484 z M 170.77148 75.867188 L 170.77148 76.640625 L 170.77148 81.720703 L 176.625 81.720703 L 176.625 75.867188 L 170.77148 75.867188 z M 172.31641 77.412109 L 175.07812 77.412109 L 175.07812 80.175781 L 172.31641 80.175781 L 172.31641 77.412109 z "
         style="color:#000000;font-style:normal;font-variant:normal;font-weight:normal;font-stretch:normal;font-size:medium;line-height:1.25;font-family:Bahnschrift;-inkscape-font-specification:Bahnschrift;font-variant-ligatures:normal;font-variant-position:normal;font-variant-caps:normal;font-variant-numeric:normal;font-variant-alternates:normal;font-variant-east-asian:normal;font-feature-settings:normal;font-variation-settings:normal;text-indent:0;text-align:start;text-decoration:none;text-decoration-line:none;text-decoration-style:solid;text-decoration-color:#000000;letter-spacing:normal;word-spacing:normal;text-transform:none;writing-mode:lr-tb;direction:ltr;text-orientation:mixed;dominant-baseline:auto;baseline-shift:baseline;text-anchor:start;white-space:normal;shape-padding:0;shape-margin:0;inline-size:0;clip-rule:nonzero;display:inline;overflow:visible;visibility:visible;isolation:auto;mix-blend-mode:normal;color-interpolation:sRGB;color-interpolation-filters:linearRGB;solid-color:#000000;solid-opacity:1;vector-effect:none;fill-opacity:1;fill-rule:nonzero;stroke-width:1.54615;stroke-linecap:butt;stroke-linejoin:miter;stroke-miterlimit:4;stroke-dasharray:none;stroke-dashoffset:0;stroke-opacity:1.0;color-rendering:auto;image-rendering:auto;shape-rendering:auto;text-rendering:auto;enable-background:accumulate;stop-color:#000000;stop-opacity:1;stroke:none;" />
    </g>
    <g
       style="opacity:1"
       id="g1000">
      <path
         id="path1002"
         d="m 189.44139,73.438955 c 0,-1.422674 0.16106,-2.691001 0.48317,-3.804982 0.32212,-1.113981 0.71134,-2.053482 1.16767,-2.818505 0.45633,-0.765023 1.05358,-1.644128 1.79176,-2.637315 0.53686,-0.73818 0.95964,-1.342145 1.26833,-1.811896 0.30869,-0.483173 0.5637,-1.01332 0.76502,-1.590442 0.20133,-0.590544 0.30199,-1.221352 0.30199,-1.892425 v -0.02013 c 0,-1.167667 -0.30198,-2.073615 -0.90595,-2.717844 -0.59055,-0.64423 -1.42268,-0.966345 -2.49639,-0.966345 -1.08714,0 -1.93269,0.402644 -2.53666,1.207931 -0.59054,0.791865 -0.89252,1.919267 -0.90594,3.382206 v 0.02013 h -4.16737 v -0.02013 c 0.0537,-1.771632 0.3892,-3.281545 1.00661,-4.52974 0.61739,-1.261617 1.48307,-2.221251 2.59705,-2.878902 1.11399,-0.657651 2.436,-0.986477 3.96604,-0.986477 1.59715,0 2.96614,0.295272 4.10697,0.885816 1.14082,0.590544 2.0065,1.449517 2.59705,2.576919 0.60397,1.113981 0.90595,2.462837 0.90595,4.046568 v 0.02013 c 0,0.952923 -0.1275,1.811896 -0.38251,2.576919 -0.24159,0.765023 -0.54357,1.429385 -0.90595,1.993086 -0.34896,0.563701 -0.83213,1.248195 -1.44952,2.053482 -0.67107,0.858973 -1.21464,1.623995 -1.63071,2.295068 -0.41606,0.657651 -0.76502,1.456228 -1.04687,2.395729 -0.28185,0.926081 -0.42277,1.999797 -0.42277,3.221149 z m -0.10066,3.201016 h 4.30829 v 4.308286 h -4.30829 z"
         style="color:#000000;font-style:normal;font-variant:normal;font-weight:normal;font-stretch:normal;font-size:medium;line-height:1.25;font-family:Bahnschrift;-inkscape-font-specification:Bahnschrift;font-variant-ligatures:normal;font-variant-position:normal;font-variant-caps:normal;font-variant-numeric:normal;font-variant-alternates:normal;font-variant-east-asian:normal;font-feature-settings:normal;font-variation-settings:normal;text-indent:0;text-align:start;text-decoration:none;text-decoration-line:none;text-decoration-style:solid;text-decoration-color:#000000;letter-spacing:normal;word-spacing:normal;text-transform:none;writing-mode:lr-tb;direction:ltr;text-orientation:mixed;dominant-baseline:auto;baseline-shift:baseline;text-anchor:start;white-space:normal;shape-padding:0;shape-margin:0;inline-size:0;clip-rule:nonzero;display:inline;overflow:visible;visibility:visible;isolation:auto;mix-blend-mode:normal;color-interpolation:sRGB;color-interpolation-filters:linearRGB;solid-color:#000000;solid-opacity:1;vector-effect:none;fill:#000000;fill-opacity:1;fill-rule:nonzero;stroke-width:1.54615;stroke-linecap:butt;stroke-linejoin:miter;stroke-miterlimit:4;stroke-dasharray:none;stroke-dashoffset:0;stroke-opacity:1.0;color-rendering:auto;image-rendering:auto;shape-rendering:auto;text-rendering:auto;enable-background:accumulate;stop-color:#000000;stop-opacity:1;stroke:none;" />
      <path
         id="path1004"
         d="M 191.77734 50.601562 C 190.13654 50.601562 188.66538 50.95889 187.41797 51.695312 C 186.17268 52.430482 185.19618 53.519524 184.52148 54.896484 C 184.52122 54.897017 184.52175 54.897905 184.52148 54.898438 C 184.52107 54.899279 184.51994 54.899549 184.51953 54.900391 C 183.84284 56.270103 183.48976 57.891966 183.43359 59.746094 L 183.43359 59.757812 L 183.43359 60.5625 L 189.14844 60.5625 L 189.14844 59.769531 C 189.162 58.413742 189.4455 57.459586 189.90039 56.849609 C 190.37037 56.224188 190.92132 55.951172 191.81641 55.951172 C 192.7355 55.951172 193.31129 56.195775 193.74414 56.667969 L 193.74609 56.671875 L 193.75 56.673828 C 194.19458 57.148041 194.44531 57.828904 194.44531 58.863281 L 194.44531 58.882812 C 194.44531 59.476576 194.35801 60.019499 194.18555 60.525391 C 194.00285 61.048118 193.7738 61.520657 193.5 61.949219 C 193.20247 62.40164 192.78786 62.993845 192.25781 63.722656 L 192.26367 63.716797 C 191.5143 64.725044 190.90261 65.623799 190.42773 66.419922 C 189.92784 67.257993 189.5177 68.257726 189.18164 69.419922 C 188.83513 70.618265 188.66797 71.958434 188.66797 73.439453 L 188.66797 74.212891 L 189.44141 74.212891 L 194.32227 74.212891 L 194.32227 73.439453 C 194.32227 72.277568 194.45665 71.278877 194.71094 70.443359 L 194.71094 70.441406 L 194.71094 70.439453 C 194.97697 69.552679 195.30257 68.820074 195.67188 68.236328 L 195.67383 68.232422 L 195.67578 68.228516 C 196.0716 67.590095 196.59915 66.846993 197.25781 66.003906 L 197.25977 66 L 197.26172 65.998047 C 197.88629 65.183394 198.37898 64.485851 198.74805 63.890625 C 199.15271 63.261146 199.48013 62.535927 199.73828 61.720703 C 200.02295 60.865252 200.16016 59.924795 200.16016 58.904297 L 200.16016 58.882812 C 200.16016 57.202484 199.83786 55.720808 199.16211 54.472656 C 198.50234 53.216191 197.50695 52.230946 196.23828 51.574219 C 194.96666 50.915967 193.46978 50.601562 191.77734 50.601562 z M 191.77734 52.146484 C 193.27922 52.146484 194.51732 52.424429 195.52734 52.947266 C 196.53816 53.470516 197.27553 54.200018 197.79688 55.195312 L 197.79883 55.201172 L 197.80078 55.205078 C 198.33158 56.184111 198.61328 57.397354 198.61328 58.882812 L 198.61328 58.904297 C 198.61328 59.788261 198.49604 60.562659 198.27148 61.236328 L 198.26953 61.242188 L 198.26758 61.248047 C 198.043 61.959219 197.76588 62.559067 197.44727 63.054688 L 197.44531 63.060547 L 197.44141 63.066406 C 197.11312 63.596703 196.64234 64.264662 196.03516 65.056641 C 195.35394 65.928939 194.79658 66.712047 194.36133 67.414062 C 193.9008 68.143338 193.52914 69.004323 193.23242 69.992188 C 192.99244 70.780697 192.93064 71.718579 192.87891 72.666016 L 190.3125 72.666016 C 190.36446 71.652392 190.43439 70.657394 190.66797 69.849609 C 190.97615 68.783844 191.34311 67.902912 191.75586 67.210938 C 192.19364 66.477015 192.77692 65.616799 193.50391 64.638672 L 193.50781 64.636719 L 193.50977 64.632812 C 194.05105 63.888549 194.47924 63.277342 194.79883 62.791016 L 194.80078 62.787109 L 194.80469 62.783203 C 195.14751 62.246604 195.42679 61.661047 195.64648 61.03125 L 195.64844 61.027344 L 195.64844 61.025391 C 195.87862 60.350194 195.99219 59.631195 195.99219 58.882812 L 195.99219 58.863281 C 195.99219 57.564024 195.64019 56.435104 194.87891 55.621094 C 194.13075 54.80701 193.04311 54.40625 191.81641 54.40625 C 190.53838 54.40625 189.39966 54.940424 188.66211 55.923828 L 188.66016 55.925781 C 188.06129 56.728812 187.79559 57.801024 187.69336 59.015625 L 185.15234 59.015625 C 185.2738 57.72667 185.45217 56.500023 185.90625 55.582031 L 185.9082 55.580078 C 186.46821 54.435715 187.22167 53.604805 188.20312 53.025391 C 189.18368 52.44651 190.35807 52.146484 191.77734 52.146484 z M 188.56836 75.867188 L 188.56836 76.640625 L 188.56836 81.720703 L 194.42188 81.720703 L 194.42188 75.867188 L 188.56836 75.867188 z M 190.11328 77.412109 L 192.875 77.412109 L 192.875 80.175781 L 190.11328 80.175781 L 190.11328 77.412109 z "
         style="color:#000000;font-style:normal;font-variant:normal;font-weight:normal;font-stretch:normal;font-size:medium;line-height:1.25;font-family:Bahnschrift;-inkscape-font-specification:Bahnschrift;font-variant-ligatures:normal;font-variant-position:normal;font-variant-caps:normal;font-variant-numeric:normal;font-variant-alternates:normal;font-variant-east-asian:normal;font-feature-settings:normal;font-variation-settings:normal;text-indent:0;text-align:start;text-decoration:none;text-decoration-line:none;text-decoration-style:solid;text-decoration-color:#000000;letter-spacing:normal;word-spacing:normal;text-transform:none;writing-mode:lr-tb;direction:ltr;text-orientation:mixed;dominant-baseline:auto;baseline-shift:baseline;text-anchor:start;white-space:normal;shape-padding:0;shape-margin:0;inline-size:0;clip-rule:nonzero;display:inline;overflow:visible;visibility:visible;isolation:auto;mix-blend-mode:normal;color-interpolation:sRGB;color-interpolation-filters:linearRGB;solid-color:#000000;solid-opacity:1;vector-effect:none;fill-opacity:1;fill-rule:nonzero;stroke-width:1.54615;stroke-linecap:butt;stroke-linejoin:miter;stroke-miterlimit:4;stroke-dasharray:none;stroke-dashoffset:0;stroke-opacity:1.0;color-rendering:auto;image-rendering:auto;shape-rendering:auto;text-rendering:auto;enable-background:accumulate;stop-color:#000000;stop-opacity:1;stroke:none;" />
    </g>
  </g>
</svg>
